<svg width="1056" height="554" viewBox="0 0 1056 554" fill="none" xmlns="http://www.w3.org/2000/svg">
<rect width="1056" height="554" fill="#FEFCFB"/>
<path d="M290.301 269.526C293.564 269.337 298.307 269.483 301.687 269.485L323.606 269.498L323.619 302.736C319.899 306.038 316.351 309.799 312.834 313.336L298.6 327.479C296.505 329.561 292.249 334.274 290.146 335.765C290.399 333.914 290.253 327.446 290.252 325.235L290.238 302.987C288.604 302.936 286.941 302.911 285.307 302.934C275.765 303.065 266.109 302.718 256.578 302.968C259.147 301.115 265.227 294.686 267.793 292.135C275.363 284.667 282.866 277.13 290.301 269.526Z" fill="url(#paint0_linear_233_514)"/>
<path d="M223.528 269.524C227.055 269.372 231.448 269.488 235.031 269.488L256.679 269.489L256.578 302.968C245.633 313.297 234.026 325.238 223.425 335.936C223.147 334.665 223.391 329.049 223.393 327.384L223.412 302.946L190.168 302.945C191.682 301.12 195.95 297.101 197.806 295.271L209.955 283.111C213.138 279.905 216.337 276.716 219.553 273.544C220.683 272.412 222.389 270.41 223.528 269.524Z" fill="url(#paint1_linear_233_514)"/>
<path d="M292.886 202.572C302.504 202.57 314.133 202.881 323.606 202.546L323.619 235.669C316.49 242.96 309.112 250.166 301.908 257.396L294.236 265.06C293.325 265.957 290.301 269.526 290.301 269.526L290.266 267.216L290.254 235.985C283.695 235.764 276.48 235.982 269.866 235.922C266.528 235.891 259.328 235.748 256.667 235.748C259.545 233.892 264.618 228.422 267.314 225.728L290.399 202.693L292.886 202.572Z" fill="url(#paint2_linear_233_514)"/>
<path d="M225.212 202.515C235.236 202.512 256.698 202.551 256.698 202.551L256.667 235.748L236.25 256.2C232.627 259.839 227.287 266.139 223.528 269.524V267.766C223.528 267.766 223.406 246.368 223.42 235.932C212.389 236.051 201.207 235.894 190.154 235.939C193.248 233.309 199.526 226.694 202.598 223.597L222.95 202.52L225.212 202.515Z" fill="url(#paint3_linear_233_514)"/>
<path d="M223.582 269.672C227.097 269.524 231.458 269.637 235.031 269.637L256.527 269.638L256.428 302.904C245.566 313.157 234.054 324.993 223.526 335.62C223.488 335.297 223.464 334.839 223.452 334.294C223.436 333.566 223.441 332.695 223.454 331.81C223.481 330.045 223.542 328.217 223.543 327.384L223.562 302.946V302.795H190.494C191.721 301.383 194.209 298.969 196.146 297.095L197.912 295.377L210.062 283.217V283.216C213.243 280.011 216.443 276.823 219.658 273.651V273.65C220.225 273.082 220.94 272.293 221.646 271.544C222.341 270.808 223.03 270.11 223.582 269.672ZM225.213 202.666C230.224 202.664 238.096 202.673 244.714 202.682C248.023 202.687 251.019 202.691 253.188 202.695C254.272 202.697 255.149 202.698 255.756 202.699C256.059 202.699 256.295 202.7 256.454 202.701C256.489 202.701 256.52 202.701 256.548 202.701L256.518 235.686L236.145 256.093V256.094C234.33 257.917 232.086 260.405 229.83 262.856C227.672 265.201 225.501 267.509 223.678 269.181V267.704C223.678 267.663 223.676 267.602 223.676 267.522C223.675 267.363 223.675 267.128 223.673 266.826C223.67 266.22 223.665 265.343 223.659 264.258C223.648 262.089 223.633 259.089 223.618 255.762C223.597 250.772 223.576 245.047 223.57 240.295V235.78L223.419 235.782C212.52 235.899 201.482 235.748 190.555 235.788C193.746 232.998 199.737 226.695 202.705 223.703L202.706 223.701L223.014 202.668L225.213 202.666ZM290.389 302.842L290.243 302.837C288.608 302.786 286.942 302.761 285.305 302.784C280.536 302.849 275.738 302.795 270.939 302.756C266.297 302.719 261.653 302.696 257.037 302.807C258.353 301.776 260.328 299.88 262.292 297.919C263.373 296.84 264.455 295.739 265.426 294.749C266.397 293.758 267.257 292.878 267.897 292.242L267.898 292.243C275.456 284.787 282.945 277.263 290.366 269.672C293.622 269.489 298.319 269.633 301.688 269.634L323.456 269.648L323.468 302.667C320.692 305.135 318.012 307.859 315.372 310.547L312.729 313.23L298.494 327.373C297.446 328.414 295.853 330.119 294.269 331.739C292.812 333.228 291.362 334.643 290.331 335.436C290.426 334.387 290.449 332.522 290.444 330.634C290.439 328.5 290.402 326.347 290.401 325.235L290.389 302.987V302.842ZM290.404 235.839L290.259 235.834C283.699 235.614 276.472 235.832 269.867 235.772C266.719 235.743 260.114 235.614 257.149 235.6C258.557 234.605 260.376 232.921 262.164 231.159C264.126 229.225 266.079 227.175 267.42 225.834L290.465 202.839L292.893 202.721C302.45 202.719 314.01 203.026 323.455 202.7L323.469 235.607C316.353 242.882 308.994 250.072 301.802 257.29L294.131 264.953C293.67 265.407 292.682 266.529 291.813 267.532C291.378 268.034 290.972 268.508 290.674 268.857C290.588 268.958 290.509 269.048 290.443 269.125L290.416 267.213L290.404 235.985V235.839Z" stroke="white" stroke-opacity="0.2" stroke-width="0.3"/>
<path d="M372.68 317.881V211.789H391.019L424.816 283.174L458.311 211.789H476.802V317.881H461.191V239.827L430.727 303.483H418.754L388.29 239.979V317.881H372.68Z" fill="#161412"/>
<path d="M519.716 319.7C512.542 319.7 506.025 318.134 500.165 315.001C494.405 311.768 489.808 307.221 486.373 301.361C483.038 295.399 481.371 288.327 481.371 280.142C481.371 272.16 483.089 265.239 486.524 259.379C489.959 253.417 494.607 248.87 500.468 245.738C506.429 242.505 513.047 240.888 520.322 240.888C527.597 240.888 534.165 242.454 540.025 245.587C545.885 248.719 550.584 253.215 554.12 259.075C557.656 264.936 559.425 271.958 559.425 280.142C559.425 287.821 557.707 294.642 554.272 300.603C550.937 306.564 546.289 311.263 540.328 314.698C534.367 318.032 527.496 319.7 519.716 319.7ZM519.867 306.059C524.414 306.059 528.456 304.948 531.992 302.725C535.529 300.502 538.307 297.471 540.328 293.631C542.349 289.691 543.359 285.194 543.359 280.142C543.359 274.989 542.399 270.493 540.48 266.653C538.56 262.814 535.832 259.833 532.295 257.711C528.86 255.59 524.818 254.529 520.171 254.529C515.321 254.529 511.178 255.64 507.743 257.863C504.307 260.086 501.68 263.168 499.861 267.108C498.043 270.948 497.133 275.292 497.133 280.142C497.133 285.902 498.194 290.701 500.316 294.541C502.438 298.38 505.217 301.26 508.652 303.18C512.188 305.099 515.927 306.059 519.867 306.059Z" fill="#161412"/>
<path d="M564.995 317.881V242.707H579.999L580.454 254.074C582.98 249.931 586.466 246.698 590.911 244.374C595.357 242.05 600.207 240.888 605.461 240.888C614.252 240.888 621.325 243.667 626.68 249.224C632.136 254.68 634.864 262.864 634.864 273.777V317.881H619.253V275.747C619.253 268.876 617.687 263.572 614.555 259.833C611.524 256.095 606.977 254.226 600.914 254.226C594.852 254.226 589.951 256.297 586.213 260.439C582.475 264.582 580.605 270.341 580.605 277.717V317.881H564.995Z" fill="#161412"/>
<path d="M675.537 319.7C667.959 319.7 661.441 317.931 655.985 314.395C650.63 310.859 646.487 306.11 643.557 300.148C640.728 294.086 639.314 287.417 639.314 280.142C639.314 272.867 640.728 266.249 643.557 260.288C646.487 254.327 650.681 249.628 656.137 246.193C661.593 242.656 668.06 240.888 675.537 240.888C681.094 240.888 686.146 242.05 690.693 244.374C695.34 246.698 699.079 249.982 701.908 254.226V211.789H717.67V317.881H702.666L701.908 306.211C699.483 310.05 695.997 313.284 691.45 315.911C686.904 318.437 681.599 319.7 675.537 319.7ZM678.416 306.059C683.367 306.059 687.56 304.948 690.996 302.725C694.431 300.401 697.058 297.269 698.877 293.328C700.797 289.388 701.757 285.043 701.757 280.294C701.757 274.838 700.696 270.24 698.574 266.502C696.553 262.662 693.774 259.732 690.238 257.711C686.702 255.59 682.761 254.529 678.416 254.529C673.97 254.529 669.979 255.64 666.443 257.863C663.008 259.985 660.279 262.965 658.259 266.805C656.238 270.544 655.227 274.989 655.227 280.142C655.227 285.295 656.238 289.842 658.259 293.783C660.381 297.622 663.159 300.654 666.594 302.876C670.131 304.998 674.071 306.059 678.416 306.059Z" fill="#161412"/>
<path d="M748.927 319.7C744.077 319.7 739.581 318.841 735.438 317.123C731.397 315.304 728.164 312.677 725.739 309.242C723.314 305.807 722.101 301.664 722.101 296.814C722.101 291.055 723.566 286.457 726.496 283.022C729.427 279.486 733.317 276.909 738.167 275.292C743.118 273.575 748.523 272.716 754.384 272.716H773.632C773.632 268.27 772.874 264.683 771.358 261.955C769.944 259.227 767.973 257.257 765.447 256.044C762.921 254.731 760.042 254.074 756.808 254.074C752.464 254.074 748.675 255.084 745.441 257.105C742.208 259.126 740.238 262.309 739.531 266.653H723.617C724.122 261.197 725.941 256.549 729.073 252.71C732.306 248.87 736.348 245.94 741.198 243.919C746.149 241.899 751.403 240.888 756.96 240.888C764.336 240.888 770.398 242.252 775.147 244.98C779.896 247.708 783.433 251.447 785.757 256.196C788.08 260.844 789.242 266.199 789.242 272.261V295.298C789.343 298.33 789.95 300.552 791.061 301.967C792.274 303.382 794.446 304.19 797.578 304.392V317.881C793.537 317.881 790.051 317.477 787.121 316.668C784.19 315.759 781.765 314.345 779.846 312.425C777.926 310.505 776.41 308.08 775.299 305.15C772.874 309.191 769.337 312.627 764.69 315.456C760.143 318.285 754.889 319.7 748.927 319.7ZM752.413 306.817C756.758 306.817 760.496 305.756 763.629 303.634C766.761 301.512 769.186 298.734 770.904 295.298C772.722 291.863 773.632 288.125 773.632 284.083V283.78H755.444C752.514 283.78 749.736 284.133 747.109 284.841C744.482 285.548 742.36 286.76 740.743 288.478C739.126 290.196 738.318 292.52 738.318 295.45C738.318 299.391 739.682 302.27 742.41 304.089C745.138 305.908 748.473 306.817 752.413 306.817Z" fill="#161412"/>
<path d="M801.284 351.224L817.804 314.698L786.431 242.707H803.709L826.14 298.026L849.632 242.707H866.001L817.804 351.224H801.284Z" fill="#161412"/>
<defs>
<linearGradient id="paint0_linear_233_514" x1="316.827" y1="179.893" x2="239.916" y2="364.254" gradientUnits="userSpaceOnUse">
<stop stop-color="#FEAF88"/>
<stop offset="1" stop-color="#CC4B00"/>
</linearGradient>
<linearGradient id="paint1_linear_233_514" x1="316.827" y1="179.893" x2="239.916" y2="364.254" gradientUnits="userSpaceOnUse">
<stop stop-color="#FEAF88"/>
<stop offset="1" stop-color="#CC4B00"/>
</linearGradient>
<linearGradient id="paint2_linear_233_514" x1="316.827" y1="179.893" x2="239.916" y2="364.254" gradientUnits="userSpaceOnUse">
<stop stop-color="#FEAF88"/>
<stop offset="1" stop-color="#CC4B00"/>
</linearGradient>
<linearGradient id="paint3_linear_233_514" x1="316.827" y1="179.893" x2="239.916" y2="364.254" gradientUnits="userSpaceOnUse">
<stop stop-color="#FEAF88"/>
<stop offset="1" stop-color="#CC4B00"/>
</linearGradient>
</defs>
</svg>
