<svg width="134" height="134" viewBox="0 0 134 134" fill="none" xmlns="http://www.w3.org/2000/svg">
<path d="M100.146 67.0112C103.41 66.8223 108.153 66.9683 111.533 66.9694L133.452 66.9834L133.464 100.221C129.744 103.522 126.196 107.284 122.68 110.821L108.446 124.964C106.351 127.046 102.094 131.759 99.9917 133.25C100.245 131.399 100.098 124.931 100.097 122.719L100.084 100.472C98.4502 100.421 96.787 100.396 95.1527 100.419C85.6108 100.55 75.9546 100.203 66.4239 100.453C68.9925 98.5997 75.0723 92.1707 77.6386 89.6203C85.2089 82.1517 92.7119 74.6149 100.146 67.0112Z" fill="white"/>
<path d="M33.3733 67.0089C36.9006 66.8573 41.2942 66.9724 44.8771 66.9724L66.5244 66.9743L66.4239 100.453C55.4792 110.782 43.8714 122.723 33.2704 133.421C32.9929 132.15 33.2372 126.534 33.2387 124.869L33.258 100.43L0.0137202 100.43C1.52818 98.6053 5.79562 94.5856 7.65205 92.7558L19.8011 80.5957C22.9834 77.3899 26.1824 74.201 29.3982 71.029C30.5288 69.897 32.235 67.8948 33.3733 67.0089Z" fill="white"/>
<path d="M102.732 0.0565007C112.35 0.0545697 123.979 0.365648 133.451 0.0310112L133.465 33.1543C126.336 40.4448 118.958 47.651 111.754 54.8804L104.081 62.5448C103.171 63.4423 100.146 67.0112 100.146 67.0112L100.112 64.7005L100.1 33.4696C93.5402 33.2487 86.3261 33.4669 79.7112 33.4068C76.3739 33.3763 69.1736 33.2326 66.5132 33.2326C69.3903 31.3768 74.4636 25.907 77.1598 23.2129L100.245 0.177572L102.732 0.0565007Z" fill="white"/>
<path d="M35.0581 2.09013e-05C45.0813 -0.00287555 66.5433 0.0355846 66.5433 0.0355846L66.5132 33.2326L46.0961 53.6845C42.4732 57.3241 37.1323 63.6243 33.3733 67.0089V65.2507C33.3733 65.2507 33.2513 43.8533 33.266 33.4164C22.2349 33.5354 11.0527 33.379 0 33.4236C3.0938 30.7934 9.37215 24.1789 12.4439 21.0818L32.796 0.00450224L35.0581 2.09013e-05Z" fill="white"/>
<path d="M33.4277 67.1572C36.9426 67.0089 41.3039 67.1221 44.877 67.1221L66.373 67.123L66.2734 100.389C55.4121 110.642 43.8997 122.477 33.3721 133.104C33.3338 132.782 33.3098 132.324 33.2979 131.779C33.2818 131.051 33.2865 130.18 33.2998 129.295C33.3263 127.53 33.3879 125.702 33.3887 124.869L33.4082 100.431V100.28H0.339844C1.5665 98.8679 4.05507 96.4537 5.99121 94.5801L7.75781 92.8623L19.9072 80.7021V80.7012C23.0891 77.4958 26.2884 74.3074 29.5039 71.1357V71.1348C30.0711 70.5669 30.7856 69.7783 31.4922 69.0293C32.1871 68.2927 32.8753 67.5944 33.4277 67.1572ZM35.0586 0.150391C40.0701 0.148943 47.9414 0.157739 54.5596 0.166992C57.8686 0.171618 60.8646 0.176127 63.0332 0.179688C64.1174 0.181468 64.9952 0.182548 65.6016 0.183594C65.9046 0.184116 66.1402 0.185266 66.2998 0.185547C66.3347 0.185608 66.366 0.185498 66.3936 0.185547L66.3633 33.1709L45.9902 53.5781V53.5791C44.1761 55.4017 41.9317 57.89 39.6758 60.3408C37.5177 62.6854 35.3466 64.9935 33.5234 66.666V65.1885C33.5232 65.1477 33.5219 65.0865 33.5215 65.0068C33.5206 64.8477 33.5202 64.6129 33.5186 64.3105C33.5152 63.7051 33.5105 62.8277 33.5049 61.7432C33.4937 59.5742 33.4782 56.5737 33.4639 53.2471C33.4424 48.2564 33.4218 42.5318 33.416 37.7803V33.2646L33.2646 33.2666C22.366 33.3841 11.3274 33.2331 0.400391 33.2725C3.59205 30.4824 9.58303 24.1797 12.5508 21.1875L12.5518 21.1855L32.8594 0.15332L35.0586 0.150391ZM100.234 100.327L100.089 100.322C98.4533 100.271 96.7876 100.246 95.1504 100.269C90.3816 100.334 85.584 100.28 80.7852 100.241C76.1423 100.203 71.4986 100.18 66.8828 100.292C68.1989 99.2612 70.1736 97.3646 72.1377 95.4043C73.2191 94.3249 74.3006 93.2236 75.2715 92.2334C76.2426 91.2429 77.1025 90.3633 77.7432 89.7266L77.7441 89.7275C85.3012 82.272 92.7903 74.7474 100.212 67.1572C103.468 66.9736 108.165 67.118 111.533 67.1191L133.302 67.1328L133.313 100.152C130.538 102.62 127.858 105.343 125.218 108.032L122.574 110.715L108.34 124.857C107.292 125.899 105.698 127.604 104.114 129.224C102.658 130.713 101.208 132.127 100.177 132.921C100.272 131.872 100.295 130.007 100.29 128.119C100.285 125.985 100.248 123.832 100.247 122.72L100.234 100.472V100.327ZM100.25 33.3242L100.104 33.3193C93.5445 33.0984 86.3175 33.3168 79.7129 33.2568C76.5644 33.2281 69.9592 33.0992 66.9951 33.085C68.4032 32.0899 70.2214 30.4058 72.0098 28.6436C73.9721 26.7099 75.9243 24.6596 77.2656 23.3193L100.311 0.324219L102.738 0.206055C112.296 0.204279 123.856 0.510416 133.301 0.18457L133.314 33.0918C126.199 40.3672 118.839 47.5572 111.647 54.7744L103.977 62.4375C103.516 62.8914 102.528 64.014 101.659 65.0166C101.224 65.5189 100.817 65.9931 100.52 66.3418C100.433 66.4427 100.355 66.5328 100.289 66.6104L100.262 64.6982L100.25 33.4697V33.3242Z" stroke="white" stroke-opacity="0.2" stroke-width="0.3"/>
</svg>
