<svg width="676" height="149" viewBox="0 0 676 149" fill="none" xmlns="http://www.w3.org/2000/svg">
<path d="M100.146 67.0112C103.41 66.8223 108.153 66.9683 111.533 66.9694L133.452 66.9834L133.464 100.221C129.744 103.522 126.196 107.284 122.68 110.821L108.446 124.964C106.351 127.046 102.094 131.759 99.9917 133.25C100.245 131.399 100.098 124.931 100.097 122.719L100.084 100.472C98.4502 100.421 96.787 100.396 95.1527 100.419C85.6108 100.55 75.9546 100.203 66.4239 100.453C68.9925 98.5997 75.0723 92.1707 77.6386 89.6203C85.2089 82.1517 92.7119 74.6149 100.146 67.0112Z" fill="white"/>
<path d="M33.3733 67.0089C36.9006 66.8573 41.2942 66.9724 44.8771 66.9724L66.5244 66.9743L66.4239 100.453C55.4792 110.782 43.8714 122.723 33.2704 133.421C32.9929 132.15 33.2372 126.534 33.2387 124.869L33.258 100.43L0.0137202 100.43C1.52818 98.6053 5.79562 94.5856 7.65205 92.7558L19.8011 80.5957C22.9834 77.3899 26.1824 74.201 29.3982 71.029C30.5288 69.897 32.235 67.8948 33.3733 67.0089Z" fill="white"/>
<path d="M102.732 0.0565007C112.35 0.0545697 123.979 0.365648 133.451 0.0310112L133.465 33.1543C126.336 40.4448 118.958 47.651 111.754 54.8804L104.081 62.5448C103.171 63.4423 100.146 67.0112 100.146 67.0112L100.112 64.7005L100.1 33.4696C93.5402 33.2487 86.3261 33.4669 79.7112 33.4068C76.3739 33.3763 69.1736 33.2326 66.5132 33.2326C69.3903 31.3768 74.4636 25.907 77.1598 23.2129L100.245 0.177572L102.732 0.0565007Z" fill="white"/>
<path d="M35.0581 2.09013e-05C45.0813 -0.00287555 66.5433 0.0355846 66.5433 0.0355846L66.5132 33.2326L46.0961 53.6845C42.4732 57.3241 37.1323 63.6243 33.3733 67.0089V65.2507C33.3733 65.2507 33.2513 43.8533 33.266 33.4164C22.2349 33.5354 11.0527 33.379 0 33.4236C3.0938 30.7934 9.37215 24.1789 12.4439 21.0818L32.796 0.00450224L35.0581 2.09013e-05Z" fill="white"/>
<path d="M33.4277 67.1572C36.9426 67.0089 41.3039 67.1221 44.877 67.1221L66.373 67.123L66.2734 100.389C55.4121 110.642 43.8997 122.477 33.3721 133.104C33.3338 132.782 33.3098 132.324 33.2979 131.779C33.2818 131.051 33.2865 130.18 33.2998 129.295C33.3263 127.53 33.3879 125.702 33.3887 124.869L33.4082 100.431V100.28H0.339844C1.5665 98.8679 4.05507 96.4537 5.99121 94.5801L7.75781 92.8623L19.9072 80.7021V80.7012C23.0891 77.4958 26.2884 74.3074 29.5039 71.1357V71.1348C30.0711 70.5669 30.7856 69.7783 31.4922 69.0293C32.1871 68.2927 32.8753 67.5944 33.4277 67.1572ZM35.0586 0.150391C40.0701 0.148943 47.9414 0.157739 54.5596 0.166992C57.8686 0.171618 60.8646 0.176127 63.0332 0.179688C64.1174 0.181468 64.9952 0.182548 65.6016 0.183594C65.9046 0.184116 66.1402 0.185266 66.2998 0.185547C66.3347 0.185608 66.366 0.185498 66.3936 0.185547L66.3633 33.1709L45.9902 53.5781V53.5791C44.1761 55.4017 41.9317 57.89 39.6758 60.3408C37.5177 62.6854 35.3466 64.9935 33.5234 66.666V65.1885C33.5232 65.1477 33.5219 65.0865 33.5215 65.0068C33.5206 64.8477 33.5202 64.6129 33.5186 64.3105C33.5152 63.7051 33.5105 62.8277 33.5049 61.7432C33.4937 59.5742 33.4782 56.5737 33.4639 53.2471C33.4424 48.2564 33.4218 42.5318 33.416 37.7803V33.2646L33.2646 33.2666C22.366 33.3841 11.3274 33.2331 0.400391 33.2725C3.59205 30.4824 9.58303 24.1797 12.5508 21.1875L12.5518 21.1855L32.8594 0.15332L35.0586 0.150391ZM100.234 100.327L100.089 100.322C98.4533 100.271 96.7876 100.246 95.1504 100.269C90.3816 100.334 85.584 100.28 80.7852 100.241C76.1423 100.203 71.4986 100.18 66.8828 100.292C68.1989 99.2612 70.1736 97.3646 72.1377 95.4043C73.2191 94.3249 74.3006 93.2236 75.2715 92.2334C76.2426 91.2429 77.1025 90.3633 77.7432 89.7266L77.7441 89.7275C85.3012 82.272 92.7903 74.7474 100.212 67.1572C103.468 66.9736 108.165 67.118 111.533 67.1191L133.302 67.1328L133.313 100.152C130.538 102.62 127.858 105.343 125.218 108.032L122.574 110.715L108.34 124.857C107.292 125.899 105.698 127.604 104.114 129.224C102.658 130.713 101.208 132.127 100.177 132.921C100.272 131.872 100.295 130.007 100.29 128.119C100.285 125.985 100.248 123.832 100.247 122.72L100.234 100.472V100.327ZM100.25 33.3242L100.104 33.3193C93.5445 33.0984 86.3175 33.3168 79.7129 33.2568C76.5644 33.2281 69.9592 33.0992 66.9951 33.085C68.4032 32.0899 70.2214 30.4058 72.0098 28.6436C73.9721 26.7099 75.9243 24.6596 77.2656 23.3193L100.311 0.324219L102.738 0.206055C112.296 0.204279 123.856 0.510416 133.301 0.18457L133.314 33.0918C126.199 40.3672 118.839 47.5572 111.647 54.7744L103.977 62.4375C103.516 62.8914 102.528 64.014 101.659 65.0166C101.224 65.5189 100.817 65.9931 100.52 66.3418C100.433 66.4427 100.355 66.5328 100.289 66.6104L100.262 64.6982L100.25 33.4697V33.3242Z" stroke="white" stroke-opacity="0.2" stroke-width="0.3"/>
<path d="M182.525 115.366V9.27344H200.864L234.662 80.6584L268.157 9.27344H286.647V115.366H271.037V37.3121L240.573 100.968H228.6L198.136 37.4637V115.366H182.525Z" fill="white"/>
<path d="M329.562 117.185C322.388 117.185 315.871 115.618 310.01 112.486C304.251 109.253 299.654 104.706 296.218 98.8457C292.884 92.8843 291.217 85.8115 291.217 77.6272C291.217 69.645 292.934 62.7238 296.37 56.8634C299.805 50.9021 304.453 46.3552 310.313 43.223C316.275 39.9897 322.893 38.3731 330.168 38.3731C337.443 38.3731 344.01 39.9392 349.871 43.0714C355.731 46.2037 360.429 50.7 363.966 56.5603C367.502 62.4207 369.27 69.443 369.27 77.6272C369.27 85.3063 367.553 92.1265 364.117 98.0879C360.783 104.049 356.135 108.748 350.174 112.183C344.212 115.517 337.342 117.185 329.562 117.185ZM329.713 103.544C334.26 103.544 338.302 102.433 341.838 100.21C345.374 97.9868 348.153 94.9556 350.174 91.1161C352.195 87.1755 353.205 82.6792 353.205 77.6272C353.205 72.4742 352.245 67.9779 350.325 64.1383C348.406 60.2988 345.677 57.3181 342.141 55.1963C338.706 53.0744 334.664 52.0135 330.016 52.0135C325.166 52.0135 321.024 53.1249 317.588 55.3478C314.153 57.5707 311.526 60.6524 309.707 64.593C307.888 68.4325 306.979 72.7773 306.979 77.6272C306.979 83.3865 308.04 88.1859 310.162 92.0255C312.284 95.865 315.062 98.7446 318.498 100.664C322.034 102.584 325.773 103.544 329.713 103.544Z" fill="white"/>
<path d="M374.84 115.366V40.1918H389.845L390.299 51.5588C392.825 47.4162 396.311 44.1829 400.757 41.8589C405.203 39.535 410.053 38.3731 415.307 38.3731C424.097 38.3731 431.17 41.1517 436.525 46.7089C441.982 52.1651 444.71 60.3493 444.71 71.2617V115.366H429.099V73.232C429.099 66.3612 427.533 61.0566 424.401 57.3181C421.369 53.5796 416.822 51.7104 410.76 51.7104C404.698 51.7104 399.797 53.7817 396.059 57.9244C392.32 62.067 390.451 67.8263 390.451 75.2022V115.366H374.84Z" fill="white"/>
<path d="M485.382 117.185C477.804 117.185 471.287 115.416 465.831 111.88C460.476 108.343 456.333 103.595 453.403 97.6332C450.574 91.5708 449.159 84.9021 449.159 77.6272C449.159 70.3523 450.574 63.7342 453.403 57.7728C456.333 51.8114 460.526 47.113 465.983 43.6777C471.439 40.1413 477.905 38.3731 485.382 38.3731C490.939 38.3731 495.991 39.535 500.538 41.8589C505.186 44.1829 508.925 47.4667 511.754 51.7104V9.27344H527.516V115.366H512.512L511.754 103.696C509.329 107.535 505.843 110.768 501.296 113.395C496.749 115.921 491.445 117.185 485.382 117.185ZM488.262 103.544C493.213 103.544 497.406 102.433 500.841 100.21C504.277 97.8858 506.904 94.7535 508.723 90.813C510.642 86.8724 511.602 82.5277 511.602 77.7788C511.602 72.3226 510.541 67.7253 508.419 63.9868C506.399 60.1472 503.62 57.2171 500.084 55.1963C496.547 53.0744 492.607 52.0135 488.262 52.0135C483.816 52.0135 479.825 53.1249 476.289 55.3478C472.853 57.4697 470.125 60.4504 468.104 64.2899C466.084 68.0284 465.073 72.4742 465.073 77.6272C465.073 82.7803 466.084 87.3271 468.104 91.2677C470.226 95.1072 473.005 98.1384 476.44 100.361C479.977 102.483 483.917 103.544 488.262 103.544Z" fill="white"/>
<path d="M558.773 117.185C553.923 117.185 549.427 116.326 545.284 114.608C541.243 112.789 538.009 110.162 535.584 106.727C533.159 103.291 531.947 99.1488 531.947 94.2989C531.947 88.5396 533.412 83.9422 536.342 80.5069C539.272 76.9705 543.162 74.3939 548.012 72.7773C552.963 71.0596 558.369 70.2008 564.229 70.2008H583.477C583.477 65.755 582.72 62.168 581.204 59.44C579.789 56.7119 577.819 54.7416 575.293 53.5291C572.767 52.2156 569.887 51.5588 566.654 51.5588C562.309 51.5588 558.52 52.5692 555.287 54.59C552.054 56.6108 550.084 59.7936 549.376 64.1383H533.462C533.968 58.6822 535.786 54.0343 538.919 50.1948C542.152 46.3552 546.194 43.4251 551.043 41.4043C555.994 39.3835 561.249 38.3731 566.806 38.3731C574.182 38.3731 580.244 39.7371 584.993 42.4652C589.742 45.1933 593.278 48.9318 595.602 53.6807C597.926 58.3285 599.088 63.6837 599.088 69.7461V92.7833C599.189 95.8145 599.795 98.0374 600.907 99.4519C602.119 100.866 604.292 101.675 607.424 101.877V115.366C603.382 115.366 599.896 114.962 596.966 114.153C594.036 113.244 591.611 111.829 589.691 109.91C587.772 107.99 586.256 105.565 585.145 102.635C582.72 106.676 579.183 110.112 574.535 112.941C569.989 115.77 564.734 117.185 558.773 117.185ZM562.259 104.302C566.604 104.302 570.342 103.241 573.474 101.119C576.607 98.9972 579.032 96.2186 580.749 92.7833C582.568 89.3479 583.477 85.6094 583.477 81.5678V81.2647H565.29C562.36 81.2647 559.581 81.6183 556.954 82.3256C554.327 83.0329 552.205 84.2454 550.589 85.963C548.972 87.6807 548.164 90.0047 548.164 92.9348C548.164 96.8754 549.528 99.755 552.256 101.574C554.984 103.392 558.318 104.302 562.259 104.302Z" fill="white"/>
<path d="M611.13 148.709L627.65 112.183L596.277 40.1918H613.555L635.986 95.5114L659.478 40.1918H675.846L627.65 148.709H611.13Z" fill="white"/>
</svg>
